<mxfile host="app.diagrams.net" modified="2024-04-09T21:22:37.239Z" agent="Mozilla/5.0 (Macintosh; Intel Mac OS X 10_15_7) AppleWebKit/537.36 (KHTML, like Gecko) Chrome/123.0.0.0 Safari/537.36" version="24.2.2" etag="XexEBKyR6X2U6Mi6AnIE" type="github">
  <diagram name="Page-1" id="HD3Li34zfnBTXL5S9kyh">
    <mxGraphModel>
      <root>
        <mxCell id="0" />
        <mxCell id="1" parent="0" />
      </root>
    </mxGraphModel>
  </diagram>
</mxfile>
